<?xml version="1.0" standalone="no"?>
<!DOCTYPE svg PUBLIC "-//W3C//DTD SVG 20010904//EN"
 "http://www.w3.org/TR/2001/REC-SVG-20010904/DTD/svg10.dtd">
<svg version="1.0" xmlns="http://www.w3.org/2000/svg"
 width="762.000000pt" height="762.000000pt" viewBox="0 0 762.000000 762.000000"
 preserveAspectRatio="xMidYMid meet">
<metadata>
Created by potrace 1.14, written by Peter Selinger 2001-2017
</metadata>
<g transform="translate(0.000000,762.000000) scale(0.100000,-0.100000)"
fill="#000000" stroke="none">
<path d="M1655 6549 c-5 -8 -10 -4458 -6 -4601 1 -17 17 -18 196 -18 107 0
196 3 196 8 1 4 2 952 3 2107 1 1155 4 2105 8 2110 7 11 2739 14 2773 2 11 -3
34 -9 50 -12 52 -9 69 -13 111 -28 320 -116 536 -407 582 -787 9 -71 8 -228
-1 -303 -30 -247 -161 -501 -335 -648 -117 -99 -294 -178 -442 -198 -36 -5
-471 -9 -968 -10 -984 -1 -945 1 -999 -57 -32 -34 -45 -68 -48 -126 -6 -91 29
-159 102 -193 35 -17 100 -18 953 -20 996 -2 938 2 1036 -60 143 -91 224 -302
193 -505 -14 -92 -19 -113 -45 -165 -37 -72 -67 -108 -121 -144 -100 -66 -47
-64 -1208 -63 -577 0 -1067 1 -1088 1 l-37 1 2 723 3 722 1050 2 c578 1 1084
4 1126 7 114 8 255 59 359 129 303 206 442 684 313 1077 -13 41 -31 91 -40
110 -24 53 -95 159 -141 211 -54 60 -171 140 -255 173 -138 55 -115 54 -1512
51 -709 -2 -1293 -3 -1296 -4 -7 -1 -10 -4068 -2 -4094 4 -17 65 -18 1356 -14
1248 3 1357 4 1422 21 39 9 81 19 94 22 49 10 149 48 226 86 214 105 396 279
520 498 60 106 131 287 149 380 2 14 9 49 15 79 12 57 25 219 25 286 -3 232
-61 469 -165 678 -17 34 -60 104 -95 154 -35 51 -64 95 -64 97 0 3 29 47 64
99 127 187 210 405 243 639 10 69 10 390 -1 448 -36 209 -102 393 -193 543
-20 34 -41 67 -45 72 -118 151 -198 231 -304 305 -160 111 -339 180 -539 209
-97 14 -3212 14 -3220 0z m3132 -909 c138 -45 216 -136 260 -302 15 -60 21
-204 10 -258 -39 -197 -132 -321 -281 -377 -36 -14 -168 -16 -1111 -17 -588
-1 -1078 0 -1087 2 -17 4 -18 35 -18 483 l0 478 78 3 c42 2 535 2 1094 1 770
-1 1027 -4 1055 -13z"/>
<path d="M4650 1618 c-134 -23 -230 -137 -230 -274 0 -77 27 -143 83 -199 62
-61 117 -83 202 -80 191 5 312 187 250 375 -41 122 -175 201 -305 178z m135
-74 c140 -66 166 -278 46 -373 -151 -119 -356 -9 -346 185 8 155 164 253 300
188z"/>
<path d="M5279 1619 c-62 -9 -118 -40 -162 -88 -51 -56 -69 -104 -70 -186 -1
-114 50 -203 147 -252 140 -71 314 -9 378 135 46 103 18 241 -64 318 -29 29
-118 81 -118 70 0 -2 -15 -1 -32 3 -18 4 -54 4 -79 0z m126 -74 c41 -16 92
-69 110 -112 31 -74 14 -181 -38 -240 -132 -151 -371 -51 -369 154 1 157 152
257 297 198z"/>
<path d="M1649 1558 c-1 -67 -1 -459 0 -474 1 -7 36 -10 106 -9 82 2 111 7
137 22 99 58 105 199 11 250 -32 17 -43 33 -23 33 17 0 40 46 44 88 4 31 -1
50 -18 74 -32 48 -69 62 -168 65 l-88 3 -1 -52z m178 -19 c12 -6 27 -24 33
-40 24 -57 -22 -118 -90 -120 -62 -3 -60 -6 -60 90 l0 89 48 -4 c26 -2 57 -9
69 -15z m29 -219 c26 -14 54 -61 54 -90 0 -31 -29 -76 -57 -89 -13 -6 -51 -11
-83 -11 l-60 0 0 98 c0 54 2 101 4 103 9 8 122 -1 142 -11z"/>
<path d="M2052 1406 l3 -204 30 -44 c44 -61 105 -92 180 -91 99 1 172 52 203
142 8 21 12 104 12 217 l0 184 -30 0 c-16 0 -30 -3 -31 -7 0 -5 -1 -86 -1
-181 -1 -156 -3 -178 -22 -215 -31 -60 -66 -82 -131 -82 -57 0 -91 18 -127 66
-24 32 -26 52 -27 252 l-1 167 -31 0 -30 0 3 -204z"/>
<path d="M2599 1600 c0 -5 0 -120 0 -255 0 -135 0 -251 0 -258 1 -19 229 -17
240 2 20 32 1 41 -90 41 -78 0 -89 2 -90 18 0 9 0 117 0 240 l-1 222 -29 0
c-16 0 -29 -4 -30 -10z"/>
<path d="M2928 1598 c-4 -11 -3 -503 1 -518 0 -3 55 -5 121 -5 l120 0 0 27 0
28 -90 0 -90 0 -1 68 c0 37 0 145 0 240 l0 172 -29 0 c-15 0 -30 -6 -32 -12z"/>
<path d="M3143 1598 c2 -7 42 -69 88 -138 l84 -125 2 -115 c1 -63 2 -122 2
-130 1 -11 11 -16 31 -15 l30 0 0 125 0 125 90 138 c50 76 90 140 90 142 0 3
-15 5 -34 5 -37 0 -32 6 -123 -138 l-52 -84 -73 111 c-68 105 -74 111 -106
111 -23 0 -33 -4 -29 -12z"/>
<path d="M3640 1342 l0 -268 28 1 27 0 3 113 c2 98 5 112 20 113 101 3 134 9
165 28 94 58 88 208 -9 257 -32 16 -63 21 -138 22 l-96 2 0 -268z m173 209
c10 0 32 -14 48 -30 37 -38 39 -88 5 -128 -20 -23 -34 -28 -90 -33 -37 -3 -69
-4 -72 -1 -2 2 -4 48 -4 100 l0 96 48 -1 c26 -1 55 -2 65 -3z"/>
<path d="M4030 1342 l0 -268 30 0 30 0 0 117 0 117 31 -1 c28 -2 39 -14 108
-117 69 -104 79 -114 109 -116 17 -2 32 -1 32 1 0 1 -31 49 -68 106 -38 57
-71 109 -75 116 -4 7 10 19 37 33 98 47 104 193 10 251 -33 20 -54 24 -141 27
l-103 3 0 -269z m168 209 c13 0 37 -14 53 -30 37 -38 39 -88 5 -128 -21 -24
-32 -28 -95 -31 l-71 -4 0 94 c0 52 2 97 5 99 4 4 23 4 103 0z"/>
<path d="M5695 1344 c0 -145 3 -264 7 -265 55 -8 53 -11 55 106 0 61 2 116 2
123 1 9 27 12 95 12 92 0 94 0 98 25 6 28 12 27 -109 27 -57 -1 -83 3 -84 11
-5 78 -2 160 5 165 5 3 55 6 110 6 100 1 100 1 100 26 l0 25 -139 1 -140 2 0
-264z"/>
</g>
</svg>
