<svg width="57" height="59" viewBox="0 0 57 59" fill="none" xmlns="http://www.w3.org/2000/svg">
<path d="M27.2018 12.1126C27.0258 12.1126 26.8108 12.1126 26.6348 12.1126C26.4784 12.1126 26.3611 12.2244 26.3611 12.3733V16.1534C26.3611 16.3023 26.4784 16.4141 26.6348 16.4141C26.8108 16.4141 27.0258 16.4141 27.2018 16.4141C27.3582 16.4141 27.4755 16.3023 27.4755 16.1534V12.3733C27.4951 12.2244 27.3582 12.1126 27.2018 12.1126Z" fill="white"/>
<path d="M33.1065 11.7589C33.0283 11.7589 32.9501 11.7589 32.8719 11.7589C32.4613 11.7589 32.4809 12.001 32.4809 12.001V16.5258C32.4809 16.6748 32.6177 16.8051 32.7741 16.8051C32.911 16.8051 33.0479 16.8051 33.1847 16.8051C34.6316 16.7679 37.2711 15.5762 37.232 14.2168C37.1929 12.8017 34.5729 11.7775 33.1065 11.7589Z" fill="white"/>
<path d="M32.0506 12.0195C32.0506 11.8705 31.9333 11.7402 31.7573 11.7402C31.1708 11.7402 30.5842 11.7402 29.9977 11.7402C29.1765 11.7402 28.3553 11.7402 27.5341 11.7402C27.3777 11.7402 27.2408 11.8519 27.2408 12.0009V16.5071C27.2408 16.6561 27.3582 16.7678 27.5146 16.7678C28.9223 16.7678 30.33 16.7864 31.7378 16.7678C31.8942 16.7678 32.0115 16.6375 32.0115 16.4885V12.0195H32.0506Z" fill="white"/>
<path d="M55.9042 28.0707C54.3205 24.6258 51.3681 22.6334 47.2622 22.0934C46.617 22.0003 46.617 21.8327 46.9103 21.3672C48.6504 18.6858 49.3934 15.7809 49.0806 12.6154C48.4354 5.6884 42.0419 0.046275 34.7099 0.0090332C30.0957 0.0090332 24.3201 0.0090332 20.2533 0.0090332C19.7841 0.0090332 19.3931 0.381451 19.3931 0.828352V2.94182V5.05529C19.3931 5.05529 19.3931 5.91185 20.1947 5.87461C24.1637 5.89323 30.3107 5.87461 34.2602 5.89323C36.7433 5.91185 39.1286 6.88014 40.7906 8.64912C43.0977 11.1257 43.6451 14.0119 42.3156 17.0471C40.9079 20.2313 38.2684 21.9444 34.573 22.0003C32.1877 22.0375 29.7828 22.0003 27.3975 22.0003C26.4003 22.0003 26.3808 22.0189 26.3808 22.9686C26.3808 29.1507 26.3808 35.3515 26.3808 41.5336C26.3808 42.595 26.3808 42.595 27.4952 42.595C33.6541 42.595 39.813 42.6136 45.9718 42.595C49.1001 42.5764 51.8178 41.4777 53.9685 39.2432C56.8818 36.1894 57.6443 31.8694 55.9042 28.0707ZM46.1869 36.7108C41.8659 36.7666 37.5449 36.7294 33.224 36.7294C32.5983 36.7294 32.5787 36.4687 32.5787 35.7425C32.5787 33.4894 32.5005 31.1431 32.5592 28.7411C32.5787 28.0707 32.7938 27.9404 33.3413 27.9404C35.5311 27.959 37.7405 27.9404 39.9303 27.9404C42.0223 27.9404 44.1339 27.9217 46.226 27.9404C48.3376 27.9776 50.1168 29.4114 50.5665 31.3666C51.1922 34.048 49.1001 36.6735 46.1869 36.7108Z" fill="white"/>
<path d="M4.57261 50.4158C3.69277 50.5647 2.81294 50.7137 1.9331 50.8999C0.838191 51.1234 0.368945 51.7751 0.427601 52.9296C0.72088 55.2013 3.16487 59 5.92169 59C7.15346 59 8.24837 58.609 9.32372 58.1062C7.34898 55.7227 5.72617 53.0227 4.57261 50.4158Z" fill="white"/>
<path d="M8.2287 49.6151C7.72035 49.764 7.19245 49.8944 6.66455 50.0247C7.77901 52.4827 9.26496 54.8661 11.1419 57.1565C11.5916 56.9144 12.0413 56.6724 12.491 56.4117C10.6727 54.2703 9.2454 51.9985 8.2287 49.6151Z" fill="white"/>
<path d="M21.2895 23.6948C21.309 20.5665 21.309 17.4382 21.309 14.3099C21.309 10.1202 21.309 5.9305 21.309 1.7408C21.309 1.18217 21.4263 0.213887 20.8789 0.0835407C20.1946 -0.0840472 19.2952 -0.0840471 19.2952 0.90286C19.3147 2.67184 19.1779 4.44083 19.1583 6.20981C19.0606 11.2561 18.9432 16.3023 18.865 21.33C18.8064 24.6259 18.8259 27.9404 18.7086 31.2363C18.5913 34.5694 18.6304 37.9025 18.3371 41.2171C18.1416 43.3026 17.1836 44.9412 15.4826 46.1516C13.8402 47.3061 12.1001 48.2185 10.2817 48.9075C11.2398 51.142 12.5889 53.302 14.2899 55.3503C16.1669 54.2144 18.0243 52.9855 19.8231 51.5517C20.9766 50.3972 21.309 48.0882 21.3286 46.3937C21.3677 42.8185 21.2504 39.6157 21.2895 36.0405C21.2895 31.9439 21.2699 27.8287 21.2895 23.6948Z" fill="white"/>
</svg>
