<?xml version="1.0" encoding="UTF-8"?>
<svg id="Layer_1" data-name="Layer 1" xmlns="http://www.w3.org/2000/svg" viewBox="0 0 365.2 365.2">
  <defs>
    <style>
      .cls-1 {
        fill: none;
      }

      .cls-2 {
        fill: #f7f7ff;
      }
    </style>
  </defs>
  <path class="cls-2" d="M78.83,182.49c0-36.21,0-72.42,0-108.62,0-2.33-.16-2.27,2.21-2.27,48.54,0,97.08-.03,145.61,.02,8.32,0,16.29,1.92,23.88,5.34,7.23,3.26,13.43,7.91,18.72,13.78,3.21,3.56,5.94,7.47,8.25,11.67,4.32,7.84,6.95,16.24,8.11,25.09,.69,5.28,.77,10.58,.36,15.9-.57,7.47-2.24,14.68-5.01,21.63-2.41,6.05-5.54,11.7-9.61,16.81-.03,.03-.05,.07-.08,.1-.85,1.11-.87,1.13-.01,2.2,2.94,3.68,5.45,7.63,7.55,11.84,3.36,6.74,5.55,13.85,6.67,21.3,.56,3.7,.91,7.42,.87,11.16-.11,10.89-2.27,21.33-7.07,31.19-3.08,6.33-7,12.06-11.97,17.04-6.98,6.99-15.27,11.79-24.77,14.49-4.44,1.26-8.98,2.03-13.59,2.32-1.49,.1-2.98,.14-4.48,.14-39.53,0-79.06,0-118.58,0-.5,0-1,0-1.49-.02-.6-.01-.92-.31-.91-.93,0-.33,0-.66,0-1,0-64.53,0-129.05,0-193.58q0-1.87,1.97-1.88c29.19,0,58.38,.07,87.57-.04,10.42-.04,20.84-.07,31.26-.09,5.19,0,10.24,.87,15.05,2.92,6.01,2.56,10.81,6.6,14.55,11.91,4.16,5.89,6.43,12.51,7.41,19.61,.43,3.05,.61,6.12,.44,9.19-.55,9.8-3.29,18.86-9.41,26.7-5.95,7.62-13.79,12.04-23.28,13.64-1.32,.22-2.64,.29-3.97,.29-5.11,0-10.21-.05-15.32,.01-28.48,.32-56.96,.09-85.44,.18-1.86,0-1.87,0-1.87,1.86,0,21.97,0,43.93,0,65.9q0,1.91,1.93,1.91c33.42,0,66.85,0,100.27,0,3.26,0,6.34-.72,9.15-2.42,2.89-1.75,5.03-4.18,6.5-7.2,1.51-3.1,2.24-6.4,2.52-9.83,.35-4.38-.22-8.62-1.72-12.73-1.7-4.63-4.49-8.41-8.89-10.83-2.58-1.42-5.33-2.25-8.32-2.25-26.7,.03-53.4,.03-80.09,.04-.87,0-1.74,0-2.62-.02-4.61-.11-8.24-3.76-8.3-8.4-.02-1.36-.12-2.74,.29-4.08,1.11-3.7,4.23-6.14,8.08-6.29,.46-.02,.91-.01,1.37-.01,27.07,0,54.14-.03,81.21-.01,6.44,0,12.51-1.48,18.27-4.25,7.83-3.76,13.79-9.56,18.17-17.02,3.54-6.03,5.63-12.54,6.64-19.44,.55-3.76,.7-7.53,.47-11.3-.62-10.35-3.61-19.92-10.01-28.21-6.16-7.99-14.27-12.91-24.19-14.82-2.73-.53-5.5-.78-8.29-.78-41.69,.01-83.37,.01-125.06,.01-2.1,0-2.07-.16-2.07,2.15,0,66.23,0,132.46,0,198.69,0,.46,0,.91-.01,1.37,0,.65-.33,1-.99,1.01-.29,0-.58,.01-.87,.01-5.02,0-10.05,0-15.07,0-.25,0-.5,0-.75,0-1.07-.06-1.22-.2-1.26-1.25-.02-.46,0-.91,0-1.37,0-36.17,0-72.33,0-108.5Zm96.43-67.49h0c-16.94,0-33.87,0-50.81,0q-1.99,0-2,1.99c0,14.2,0,28.4,0,42.59q0,1.94,1.9,1.95c33.21,0,66.42,.01,99.63,.04,1.86,0,3.63-.36,5.35-1.01,5.61-2.11,9.28-6.2,11.37-11.67,2.89-7.54,2.95-15.18,.08-22.76-1.65-4.36-4.5-7.71-8.82-9.69-2.3-1.05-4.73-1.46-7.26-1.46-16.48,.02-32.96,.01-49.44,.01Z"/>
  <rect class="cls-1" width="365.2" height="365.2"/>
</svg>